<?xml version="1.0" encoding="UTF-8" standalone="no"?><!DOCTYPE svg PUBLIC "-//W3C//DTD SVG 1.1//EN" "http://www.w3.org/Graphics/SVG/1.1/DTD/svg11.dtd"><svg width="100%" height="100%" viewBox="0 0 142 160" version="1.1" xmlns="http://www.w3.org/2000/svg" xmlns:xlink="http://www.w3.org/1999/xlink" xml:space="preserve" xmlns:serif="http://www.serif.com/" style="fill-rule:evenodd;clip-rule:evenodd;stroke-linejoin:round;stroke-miterlimit:2;"><path d="M0,0l97.215,0c24.3,0 44.182,19.878 44.182,44.182c0,18.77 -11.86,34.91 -28.46,41.277l28.46,73.611l-18.938,0l-27.35,-70.696l-77.429,0l0,53.026l60.037,0l-6.833,-17.679l-35.53,0l0,-17.678l47.64,0l20.503,53.027l-103.497,0l0,-88.376l97.215,0c14.587,0 26.513,-11.927 26.513,-26.512c0,-14.584 -11.926,-26.512 -26.513,-26.512l-79.535,0l0,35.347l-17.68,0l0,-53.017Z" style="fill:#191919;"/></svg>